<?xml version="1.0" encoding="UTF-8"?>
<svg version="1.1" xmlns="http://www.w3.org/2000/svg" width="500" height="500">
<path d="M0 0 C165 0 330 0 500 0 C500 165 500 330 500 500 C335 500 170 500 0 500 C0 335 0 170 0 0 Z " fill="#CB2562" transform="translate(0,0)"/>
<path d="M0 0 C3.48832821 3.1480035 6.06419243 5.8175773 7.5625 10.3125 C7.67936851 13.05369563 7.74058813 15.77042061 7.75537109 18.51245117 C7.76763733 19.76667374 7.76763733 19.76667374 7.78015137 21.04623413 C7.80498126 23.81597176 7.82151684 26.58565816 7.8359375 29.35546875 C7.84126118 30.30256525 7.84658485 31.24966175 7.85206985 32.22545815 C7.87879329 37.24022232 7.89816921 42.2549617 7.91259766 47.26977539 C7.92592798 51.41453158 7.95376506 55.55879442 7.99462891 59.70336914 C8.04401475 64.71247174 8.06872625 69.72112737 8.07582474 74.73046303 C8.0825267 76.63579499 8.09772122 78.54111739 8.12171555 80.44631004 C8.15346147 83.11992277 8.15338981 85.79182317 8.14599609 88.46557617 C8.16240143 89.24561508 8.17880676 90.02565399 8.19570923 90.82933044 C8.11605326 97.90289632 5.09843065 102.56788812 0.37890625 107.67578125 C-0.36488281 108.31902344 -1.10867187 108.96226562 -1.875 109.625 C-2.74511719 110.3778125 -3.61523438 111.130625 -4.51171875 111.90625 C-8.28447969 115.00908143 -12.1202949 118.02404793 -15.98217773 121.01489258 C-20.24366708 124.32811025 -24.36323381 127.77236714 -28.4375 131.3125 C-33.00742772 135.28088643 -37.65252766 139.10621698 -42.4375 142.8125 C-47.9152423 147.05598377 -53.20146066 151.4797383 -58.43798828 156.01660156 C-63.33397488 160.25149719 -68.34104532 164.31988574 -73.4375 168.3125 C-71.92068506 172.12596128 -69.69296974 173.98502097 -66.5 176.5 C-65.51128906 177.28761719 -64.52257812 178.07523438 -63.50390625 178.88671875 C-62.49199219 179.68722656 -61.48007813 180.48773438 -60.4375 181.3125 C-58.60118682 182.80885057 -56.76777886 184.30877449 -54.9375 185.8125 C-53.57625 186.92625 -53.57625 186.92625 -52.1875 188.0625 C-43.9375 194.8125 -43.9375 194.8125 -41.1640625 197.08203125 C-39.40932216 198.51749935 -37.65414845 199.95243796 -35.8984375 201.38671875 C-29.49204226 206.62215655 -23.09956135 211.87429534 -16.72094727 217.14355469 C-13.53561799 219.77294206 -10.3478402 222.39613546 -7.11328125 224.96484375 C5.45748141 234.99744424 5.45748141 234.99744424 7.5625 241.3125 C7.67936851 244.05369563 7.74058813 246.77042061 7.75537109 249.51245117 C7.76763733 250.76667374 7.76763733 250.76667374 7.78015137 252.04623413 C7.80498126 254.81597176 7.82151684 257.58565816 7.8359375 260.35546875 C7.84392302 261.7761135 7.84392302 261.7761135 7.85206985 263.22545815 C7.87879329 268.24022232 7.89816921 273.2549617 7.91259766 278.26977539 C7.92592798 282.41453158 7.95376506 286.55879442 7.99462891 290.70336914 C8.04401475 295.71247174 8.06872625 300.72112737 8.07582474 305.73046303 C8.0825267 307.63579499 8.09772122 309.54111739 8.12171555 311.44631004 C8.15346147 314.11992277 8.15338981 316.79182317 8.14599609 319.46557617 C8.16240143 320.24561508 8.17880676 321.02565399 8.19570923 321.82933044 C8.12888531 327.76339152 6.22481949 331.67638237 2.5625 336.3125 C-1.09990797 339.80050759 -3.95175945 340.59698195 -8.875 340.8125 C-17.86067807 340.41286742 -22.53616886 335.49279014 -28.859375 329.65234375 C-31.95683607 326.84116317 -35.19346301 324.26107018 -38.4765625 321.671875 C-42.31180196 318.61582667 -46.09307409 315.49662902 -49.875 312.375 C-51.35545871 311.15363367 -52.8359273 309.9322793 -54.31640625 308.7109375 C-55.02297363 308.12795898 -55.72954102 307.54498047 -56.45751953 306.94433594 C-60.77345179 303.387284 -65.10621385 299.85082761 -69.4375 296.3125 C-72.19554664 294.0562756 -74.95323997 291.79961983 -77.7109375 289.54296875 C-79.46567784 288.10750065 -81.22085155 286.67256204 -82.9765625 285.23828125 C-89.3858885 280.00044837 -95.77693196 274.74072781 -102.16503906 269.47705078 C-107.9120482 264.74263437 -113.67062713 260.02270983 -119.4375 255.3125 C-126.69912381 249.38142217 -133.94243306 243.42861367 -141.17822266 237.46606445 C-145.09241932 234.24135454 -149.01026747 231.02133634 -152.9375 227.8125 C-153.78183594 227.1215625 -154.62617188 226.430625 -155.49609375 225.71875 C-157.12704429 224.38453283 -158.75835178 223.05075038 -160.39111328 221.71875 C-165.42735254 217.60809605 -170.44288428 213.47362898 -175.4375 209.3125 C-176.44941406 208.47203125 -177.46132812 207.6315625 -178.50390625 206.765625 C-188.33822194 198.29760355 -194.28244734 189.14911803 -196.4375 176.3125 C-197.5695683 160.57489477 -194.18494349 148.61554555 -183.921875 136.52734375 C-179.74770309 132.06856921 -174.86491155 128.43453419 -170.04467773 124.71118164 C-165.72834301 121.36762181 -161.55694001 117.89505029 -157.4375 114.3125 C-152.86776912 110.34389836 -148.22245874 106.51877248 -143.4375 102.8125 C-137.94692368 98.55907401 -132.65071567 94.12238644 -127.3996582 89.57763672 C-123.42529257 86.1426692 -119.3793534 82.82419188 -115.2578125 79.56640625 C-111.47286109 76.54159051 -107.73713747 73.45857561 -104 70.375 C-102.88467896 69.45485107 -102.88467896 69.45485107 -101.74682617 68.51611328 C-100.2949005 67.31822252 -98.84299553 66.12030667 -97.39111328 64.92236328 C-94.91181339 62.87931111 -92.4256283 60.844788 -89.9375 58.8125 C-85.2608019 54.99129546 -80.59824852 51.15312334 -75.9375 47.3125 C-68.61287717 41.27710706 -61.27246785 35.26155759 -53.921875 29.2578125 C-48.99428271 25.2301697 -44.07476006 21.19303146 -39.16308594 17.14599609 C-37.68502051 15.92832701 -36.20650815 14.71120025 -34.72753906 13.49462891 C-31.47946399 10.82244849 -28.2345594 8.14713235 -25.0078125 5.44921875 C-24.03585938 4.64097656 -23.06390625 3.83273438 -22.0625 3 C-20.81339844 1.95392578 -20.81339844 1.95392578 -19.5390625 0.88671875 C-14.04686445 -3.22732551 -5.93730147 -2.91467527 0 0 Z " fill="#040001" transform="translate(237.4375,80.6875)"/>
<path d="M0 0 C3.46517243 1.45525314 6.12422813 3.60352344 9 6 C10.010625 6.8353125 11.02125 7.670625 12.0625 8.53125 C14.30221747 10.40268954 16.52317177 12.29419698 18.734375 14.19921875 C23.41220867 18.22704792 28.21154832 22.10502035 33 26 C34.83379879 27.49943092 36.66712943 28.99943458 38.5 30.5 C41.1789992 32.69225146 43.85824208 34.88419468 46.5390625 37.07421875 C52.9483885 42.31205163 59.33943196 47.57177219 65.72753906 52.83544922 C71.4745482 57.56986563 77.23312713 62.28979017 83 67 C90.26162381 72.93107783 97.50493306 78.88388633 104.74072266 84.84643555 C108.65491932 88.07114546 112.57276747 91.29116366 116.5 94.5 C121.1766981 98.32120454 125.83925148 102.15937666 130.5 106 C135.28642076 109.9439478 140.07462413 113.88554495 144.875 117.8125 C145.72707031 118.50988281 146.57914063 119.20726562 147.45703125 119.92578125 C149.22164518 121.36512072 150.99015755 122.79968877 152.76171875 124.23046875 C155.52369338 126.46855419 158.26741436 128.72614075 161 131 C162.32064453 132.09634766 162.32064453 132.09634766 163.66796875 133.21484375 C174.49364265 142.53376727 180.99580999 152.49223854 182.37890625 166.96484375 C182.98569428 180.49864398 179.02587641 192.54596647 170.328125 203.01171875 C165.83798739 207.74171414 160.71644859 211.67313544 155.56542969 215.64550781 C151.17917676 219.03477919 146.93872941 222.55753529 142.75 226.1875 C138.18104979 230.14263607 133.56209298 233.99805275 128.8203125 237.74609375 C125.03536109 240.77090949 121.29963747 243.85392439 117.5625 246.9375 C116.81895264 247.55093262 116.07540527 248.16436523 115.30932617 248.79638672 C113.8574005 249.99427748 112.40549553 251.19219333 110.95361328 252.39013672 C108.47431339 254.43318889 105.9881283 256.467712 103.5 258.5 C98.8233019 262.32120454 94.16074852 266.15937666 89.5 270 C82.17537717 276.03539294 74.83496785 282.05094241 67.484375 288.0546875 C61.0632012 293.30313196 54.6594752 298.57244379 48.25927734 303.84643555 C43.49295112 307.77317219 38.71870681 311.68991347 33.93359375 315.59375 C31.60645021 317.50256547 29.2875358 319.42014038 26.97265625 321.34375 C1.58506435 342.41065367 1.58506435 342.41065367 -8.2421875 342.26953125 C-12.21186909 341.88155954 -14.11985185 340.74299824 -17 338 C-21.31091413 332.52459424 -22.73741784 328.1328492 -22.64697266 321.23242188 C-22.66011505 319.97710411 -22.66011505 319.97710411 -22.67352295 318.69642639 C-22.69537781 315.95332688 -22.68101451 313.21186346 -22.6640625 310.46875 C-22.66743465 308.54878432 -22.67229059 306.62882072 -22.67855835 304.7088623 C-22.68591082 300.6942096 -22.67527671 296.68011493 -22.65185547 292.66552734 C-22.62336869 287.53414233 -22.6397814 282.40406507 -22.66971779 277.27272797 C-22.68783479 273.31083423 -22.68201258 269.34924764 -22.66907883 265.38734436 C-22.66575698 263.49601586 -22.66978869 261.60465895 -22.68147659 259.71336365 C-22.6942583 257.0640233 -22.67470799 254.41676446 -22.64697266 251.76757812 C-22.65709381 250.99539444 -22.66721497 250.22321075 -22.67764282 249.42762756 C-22.54219645 242.40062116 -19.50757078 237.71391829 -14.81640625 232.63671875 C-13.70072266 231.67185547 -13.70072266 231.67185547 -12.5625 230.6875 C-11.69238281 229.9346875 -10.82226562 229.181875 -9.92578125 228.40625 C-6.15302031 225.30341857 -2.3172051 222.28845207 1.54467773 219.29760742 C5.80616708 215.98438975 9.92573381 212.54013286 14 209 C18.56992772 205.03161357 23.21502766 201.20628302 28 197.5 C33.4777423 193.25651623 38.76396066 188.8327617 44.00048828 184.29589844 C48.89647488 180.06100281 53.90354532 175.99261426 59 172 C57.48318506 168.18653872 55.25546974 166.32747903 52.0625 163.8125 C51.07378906 163.02488281 50.08507812 162.23726562 49.06640625 161.42578125 C47.54853516 160.22501953 47.54853516 160.22501953 46 159 C44.16368682 157.50364943 42.33027886 156.00372551 40.5 154.5 C39.13875 153.38625 39.13875 153.38625 37.75 152.25 C29.5 145.5 29.5 145.5 26.7265625 143.23046875 C24.97182216 141.79500065 23.21664845 140.36006204 21.4609375 138.92578125 C15.05533834 133.69099402 8.6640055 128.43909209 2.28564453 123.17114258 C-0.91331984 120.5309383 -4.11506535 117.89688309 -7.359375 115.3125 C-19.48163444 105.61469245 -19.48163444 105.61469245 -22 99 C-22.1960319 96.18505769 -22.28348823 93.46946475 -22.2746582 90.65478516 C-22.27976913 89.81527817 -22.28488007 88.97577118 -22.29014587 88.11082458 C-22.30404077 85.33683127 -22.30308503 82.56308647 -22.30078125 79.7890625 C-22.30466855 77.85859078 -22.30900329 75.92811991 -22.31376648 73.99765015 C-22.3212287 69.95087919 -22.32093762 65.90419548 -22.31567383 61.85742188 C-22.3098826 56.67671352 -22.32680184 51.49636307 -22.3500185 46.31571388 C-22.36476616 42.32823607 -22.36562607 38.34084422 -22.36250877 34.35334396 C-22.36302158 32.4436103 -22.36825165 30.53387177 -22.37832069 28.62416458 C-22.3906862 25.95054278 -22.38389254 23.27761497 -22.37231445 20.60400391 C-22.37995819 19.81834549 -22.38760193 19.03268707 -22.39547729 18.22322083 C-22.34327121 12.75649808 -21.33302095 8.49924128 -17.46484375 4.35546875 C-11.52898687 -0.18371592 -7.45786123 -0.99570911 0 0 Z " fill="#500D2D" transform="translate(277,79)"/>
<path d="M0 0 C165 0 330 0 500 0 C500 165 500 330 500 500 C335 500 170 500 0 500 C0 335 0 170 0 0 Z M25.71484375 36.50390625 C5.98048855 60.19273725 4.53371298 86.11951165 4.59316695 115.52389634 C4.59794362 119.51241135 4.58534956 123.50088022 4.57514954 127.48937988 C4.55804415 135.28098634 4.55710415 143.07251187 4.56236244 150.86413222 C4.56642041 157.20272975 4.56494137 163.54130356 4.55961418 169.87989998 C4.55886576 170.78549349 4.55811734 171.69108699 4.55734624 172.62412273 C4.55581461 174.46440649 4.55427626 176.30469025 4.55273127 178.144974 C4.53903644 195.36192441 4.54442292 212.57882924 4.55591648 229.79577858 C4.56584845 245.51240853 4.55290342 261.22892075 4.52898229 276.94553255 C4.50454316 293.12568743 4.49499505 309.30578759 4.50163502 325.48596054 C4.5051162 334.55301182 4.50296813 343.6199726 4.48538399 352.68700981 C4.47060173 360.40424586 4.47010488 368.12132765 4.4874549 375.83856087 C4.49591749 379.76799758 4.49823203 383.69715943 4.48280334 387.62658119 C4.3695176 418.77078708 8.52786081 445.8889477 31.05859375 469.1484375 C43.17696217 481.16632194 58.38128872 489.36690511 75 493 C75.75389246 493.16677929 76.50778491 493.33355857 77.28452259 493.50539178 C84.73492909 495.01848593 91.90174741 495.28429577 99.48851013 495.26069641 C101.46604761 495.26643473 101.46604761 495.26643473 103.48353535 495.27228898 C107.11421058 495.2825096 110.74478641 495.28040239 114.37546957 495.27610838 C118.30276814 495.27363014 122.23004346 495.28266917 126.15733337 495.29014587 C133.8421342 495.30286679 141.52690003 495.30468963 149.21170961 495.30234561 C155.4650935 495.30055852 161.71846682 495.30232047 167.97184944 495.30657005 C169.30977773 495.30746284 169.30977773 495.30746284 170.67473488 495.30837366 C172.48715138 495.3095855 174.29956788 495.31079963 176.11198438 495.31201603 C193.09480512 495.3228826 210.07760599 495.32073391 227.06042785 495.31463119 C242.55943934 495.30946899 258.05838784 495.3207006 273.55738687 495.33972941 C289.50457262 495.35915689 305.45172866 495.36735483 321.39892632 495.36360615 C330.33868453 495.36170075 339.27838924 495.36411637 348.21813774 495.37832069 C355.83333018 495.39029862 363.44843621 495.39156856 371.06362998 495.37953053 C374.94057541 495.37368499 378.81736331 495.37242042 382.69429779 495.38453293 C411.99619736 496.01478471 411.99619736 496.01478471 439.9375 488.375 C440.71198486 488.03090088 441.48646973 487.68680176 442.28442383 487.33227539 C449.47832738 484.01596859 455.77546061 479.89006979 462 475 C462.72058594 474.46117187 463.44117188 473.92234375 464.18359375 473.3671875 C478.7220159 461.72474884 488.24097473 443.74032686 493 426 C493.34117513 424.72918925 493.68235025 423.45837851 494.03386402 422.14905834 C495.37727529 416.01121964 495.27343337 409.93167368 495.24723816 403.67366028 C495.24882872 402.33530908 495.25129477 400.99695869 495.25455457 399.65861052 C495.26093761 396.00042218 495.25492356 392.34234537 495.24679029 388.6841644 C495.24018894 384.73104918 495.24516717 380.77794593 495.24867249 376.8248291 C495.25370592 369.08694902 495.24808298 361.34911179 495.23882218 353.61123703 C495.22841613 344.59046751 495.22850899 335.56970715 495.22899476 326.54893275 C495.22949511 310.44431529 495.22034281 294.33971771 495.20581055 278.23510742 C495.19173549 262.62898395 495.18463932 247.02287796 495.18530273 231.41674805 C495.18536267 229.97600794 495.18536267 229.97600794 495.18542381 228.50616197 C495.18548435 227.06785029 495.18548435 227.06785029 495.1855461 225.60048181 C495.18623739 207.80990855 495.1803361 190.01934269 495.17139288 172.22877184 C495.16838537 165.95045044 495.16731436 159.67213041 495.16686058 153.39380836 C495.1661758 145.73193912 495.16167473 138.07008233 495.15252777 130.40821836 C495.14793531 126.50372834 495.14485476 122.59925417 495.14612198 118.69476128 C495.14722852 115.11133815 495.14362951 111.52794989 495.13647345 107.94453403 C495.13384117 106.05350499 495.13600048 104.16247109 495.1384055 102.27144176 C495.07092995 78.11359973 490.41872065 55.59385031 474 37 C473.00226563 35.78957031 473.00226563 35.78957031 471.984375 34.5546875 C457.84569238 17.92393492 437.53133134 7.89039723 416 5 C411.39618684 4.72792937 406.80523318 4.72112659 402.19432068 4.73257446 C400.82821928 4.72883032 399.46212002 4.72422578 398.0960241 4.71884382 C394.37028052 4.70669245 390.64462726 4.70686492 386.91886842 4.70923257 C382.88935446 4.70964275 378.85986868 4.69858241 374.83036804 4.68911743 C366.94571355 4.672549 359.06108898 4.66700974 351.17641854 4.66589268 C344.76188054 4.66494009 338.34735235 4.66081933 331.93281746 4.65449142 C313.71692461 4.63688929 295.50105527 4.62765078 277.28515386 4.62915237 C275.81405275 4.62927224 275.81405275 4.62927224 274.31323242 4.62939453 C273.33129042 4.62947629 272.34934842 4.62955805 271.3376506 4.62964229 C255.43634774 4.63045459 239.53513972 4.61132832 223.63386428 4.5831178 C207.27762289 4.55433087 190.92142767 4.54058074 174.56516033 4.54230535 C165.39405595 4.54296731 156.22305098 4.53756046 147.05196953 4.51594925 C139.24127192 4.49766068 131.43071878 4.4934526 123.62000894 4.5069681 C119.64200297 4.51345966 115.66427353 4.51375475 111.68629456 4.4962616 C77.35708168 4.3548898 49.77573357 10.13975177 25.71484375 36.50390625 Z " fill="#00000000" transform="translate(0,0)"/>
<path d="M0 0 C1.33007924 2.66015848 0.7213132 3.80680699 0.0625 6.6875 C-4.17520121 29.00799472 1.65511642 50.8691506 14.1953125 69.484375 C22.92120039 81.64773387 33.40885039 90.63604183 45 100 C46.83437625 101.49872442 48.66771225 102.99872298 50.5 104.5 C51.4075 105.2425 52.315 105.985 53.25 106.75 C61.5 113.5 61.5 113.5 64.2734375 115.76953125 C66.02817784 117.20499935 67.78335155 118.63993796 69.5390625 120.07421875 C73.76564555 123.52826925 77.98741112 126.98724294 82.19140625 130.46875 C82.93310059 131.08210205 83.67479492 131.6954541 84.43896484 132.32739258 C85.89758358 133.53403928 87.35501399 134.74212446 88.81103516 135.9519043 C89.49601074 136.51820557 90.18098633 137.08450684 90.88671875 137.66796875 C91.48701904 138.16578857 92.08731934 138.6636084 92.70581055 139.17651367 C94.84056718 141.02996146 94.84056718 141.02996146 97.01052856 141.89239502 C99.74387546 143.33279653 101.18830626 144.46991802 103 147 C104.16324046 153.16783301 103.93068257 159.26995978 103.78125 165.5234375 C103.76631963 167.35329716 103.75493636 169.18318891 103.74694824 171.01309204 C103.71647615 175.81765832 103.63795768 180.62027405 103.54931641 185.42407227 C103.46731729 190.33062351 103.43090686 195.23749157 103.390625 200.14453125 C103.30495702 209.76387549 103.16851118 219.38177524 103 229 C99.11267515 227.173677 96.09498489 224.67815836 92.875 221.875 C91.70923352 220.87395074 90.54255879 219.87395825 89.375 218.875 C88.80136719 218.38386719 88.22773438 217.89273438 87.63671875 217.38671875 C84.62423938 214.83437943 81.52600585 212.39163825 78.43359375 209.9375 C70.29271014 203.45615446 62.30340954 196.78178554 54.27270508 190.16479492 C48.52566296 185.43023829 42.76696153 180.71028224 37 176 C29.74280613 170.07254041 22.50403121 164.12322519 15.27246094 158.16455078 C9.5254518 153.43013437 3.76687287 148.71020983 -2 144 C-9.26162381 138.06892217 -16.50493306 132.11611367 -23.74072266 126.15356445 C-27.65491932 122.92885454 -31.57276747 119.70883634 -35.5 116.5 C-36.34175781 115.8090625 -37.18351562 115.118125 -38.05078125 114.40625 C-40.41432361 112.47784988 -42.78833394 110.56464364 -45.16796875 108.65625 C-68.39712929 89.93804746 -68.39712929 89.93804746 -70.375 75.20703125 C-70.79047657 66.00162852 -68.02634714 59.01301302 -62.0625 52.0625 C-53.92977731 43.55769196 -44.5758458 36.3962572 -35.30200195 29.19555664 C-30.49560444 25.44381703 -25.87850634 21.50090372 -21.27661133 17.50268555 C-16.45313211 13.33413745 -11.4842631 9.3757909 -6.44140625 5.4765625 C-4.18401081 3.72958048 -2.02095379 2.02095379 0 0 Z " fill="#D42953" transform="translate(126,177)"/>
<path d="M0 0 C3.88732485 1.826323 6.90501511 4.32184164 10.125 7.125 C11.29076648 8.12604926 12.45744121 9.12604175 13.625 10.125 C14.48544922 10.86169922 14.48544922 10.86169922 15.36328125 11.61328125 C18.37576062 14.16562057 21.47399415 16.60836175 24.56640625 19.0625 C32.71175618 25.54740139 40.70558479 32.22530589 48.74047852 38.84619141 C52.65472608 42.07101988 56.57267871 45.29109114 60.5 48.5 C65.1766981 52.32120454 69.83925148 56.15937666 74.5 60 C80.9890275 65.34687337 87.48796209 70.68116158 94 76 C101.25719387 81.92745959 108.49596879 87.87677481 115.72753906 93.83544922 C121.4745482 98.56986563 127.23312713 103.28979017 133 108 C135.61362288 110.13472924 138.2263007 112.2705549 140.8359375 114.41015625 C143.29378985 116.4250142 145.75971597 118.4297604 148.2265625 120.43359375 C149.73448408 121.66392882 151.24229653 122.89439765 152.75 124.125 C153.45914551 124.69887451 154.16829102 125.27274902 154.89892578 125.86401367 C164.24598543 133.51170741 171.47845244 140.32349139 173.4453125 152.83203125 C173.84306255 162.0996073 171.09598715 169.9794166 165.0625 177 C156.89810984 185.4445408 147.56853127 192.60842596 138.31079102 199.79785156 C133.40708833 203.62612715 128.68855867 207.64551673 123.984375 211.71484375 C116.91011821 217.82661662 109.67696446 223.65950298 102 229 C102.2165625 227.7625 102.2165625 227.7625 102.4375 226.5 C106.11191 203.63700444 103.38019068 185.18655419 92 165 C91.443125 164.00097656 90.88625 163.00195312 90.3125 161.97265625 C83.55903421 150.65735419 74.41516845 141.92003536 64 134 C62.18147894 132.52824206 60.36914224 131.04881561 58.5625 129.5625 C57.17611328 128.42554688 57.17611328 128.42554688 55.76171875 127.265625 C54.85035156 126.51796875 53.93898438 125.7703125 53 125 C51.29177642 123.60403235 49.58344143 122.20820102 47.875 120.8125 C43.07462344 116.88554439 38.28655709 112.94378321 33.5 109 C31.31696062 107.20223093 29.13383961 105.40456103 26.95068359 103.60693359 C25.28531742 102.2350387 23.62105944 100.86179874 21.95703125 99.48828125 C21.08433594 98.77027344 20.21164062 98.05226563 19.3125 97.3125 C18.5308548 96.6505513 17.74920959 95.9886026 16.94387817 95.30659485 C14.78548054 93.61544169 12.79543067 92.23550669 10.46676636 90.84098816 C1.1635893 84.9803017 1.1635893 84.9803017 -0.78185272 79.99744034 C-1.95719257 74.37490021 -1.60929618 68.69141513 -1.3671875 62.98828125 C-1.34102874 61.16562048 -1.32112243 59.3428603 -1.30715942 57.52006531 C-1.25405836 52.75474402 -1.11690067 47.99553394 -0.96130371 43.23260498 C-0.81728461 38.35968713 -0.7539798 33.48576713 -0.68359375 28.61132812 C-0.5340827 19.07155388 -0.29561941 9.53628771 0 0 Z " fill="#C12071" transform="translate(271,94)"/>
<path d="M0 0 C3.14576397 2.67581752 4.66838728 5.90329125 6.5 9.5625 C7.38171875 11.29693359 7.38171875 11.29693359 8.28125 13.06640625 C12.12310546 21.4573136 13.5101096 29.16912298 13.375 38.375 C13.36339844 39.39013672 13.35179687 40.40527344 13.33984375 41.45117188 C12.91047279 61.11383603 4.30655767 76.74594956 -9.5234375 90.51171875 C-14.96080801 95.59031848 -20.71575585 100.20839114 -26.59643555 104.75390625 C-30.84318904 108.04751874 -34.94392172 111.47500045 -39 115 C-44.11991749 119.4460749 -49.35757122 123.6866623 -54.72363281 127.83129883 C-59.83027744 131.80113112 -64.72181779 135.999416 -69.55859375 140.29296875 C-73.78815866 144 -73.78815866 144 -76 144 C-76.23212355 133.44716867 -76.40959292 122.8949484 -76.51812172 112.34008026 C-76.57022309 107.43836544 -76.64083383 102.53840205 -76.75439453 97.63769531 C-76.86338725 92.90427064 -76.92290922 88.1725255 -76.94877243 83.4379425 C-76.96719169 81.63566141 -77.0031647 79.83346815 -77.05730057 78.03190613 C-77.46425892 63.92240262 -77.46425892 63.92240262 -73.85868835 59.18870544 C-71.32985588 57.14863781 -68.83172582 55.58025023 -66 54 C-64.54076525 52.8529342 -63.10017931 51.68116131 -61.69140625 50.47265625 C-61.01287598 49.91280029 -60.3343457 49.35294434 -59.63525391 48.77612305 C-58.95124512 48.21062744 -58.26723633 47.64513184 -57.5625 47.0625 C-56.08213909 45.84101513 -54.60167039 44.61966088 -53.12109375 43.3984375 C-52.06124268 42.52396973 -52.06124268 42.52396973 -50.97998047 41.63183594 C-45.82855184 37.38619488 -40.65451364 33.1681276 -35.484375 28.9453125 C-31.27585403 25.50541362 -27.07152073 22.06082799 -22.87890625 18.6015625 C-15.29596997 12.34528322 -7.70994191 6.09975748 0 0 Z " fill="#C5226B" transform="translate(347,262)"/>
<path d="M0 0 C0.66 0 1.32 0 2 0 C2.23212355 10.55283133 2.40959292 21.1050516 2.51812172 31.65991974 C2.57022309 36.56163456 2.64083383 41.46159795 2.75439453 46.36230469 C2.86338725 51.09572936 2.92290922 55.8274745 2.94877243 60.5620575 C2.96719169 62.36433859 3.0031647 64.16653185 3.05730057 65.96809387 C3.46425892 80.07759738 3.46425892 80.07759738 -0.14131165 84.81129456 C-2.67014412 86.85136219 -5.16827418 88.41974977 -8 90 C-9.45923344 91.14706746 -10.89982149 92.31883776 -12.30859375 93.52734375 C-13.32566406 94.36652344 -13.32566406 94.36652344 -14.36328125 95.22265625 C-15.04777344 95.78855469 -15.73226562 96.35445313 -16.4375 96.9375 C-17.92566951 98.16550001 -19.41395056 99.39336486 -20.90234375 100.62109375 C-21.96364502 101.49677002 -21.96364502 101.49677002 -23.04638672 102.39013672 C-25.52568661 104.43318889 -28.0118717 106.467712 -30.5 108.5 C-35.17669841 112.3212048 -39.83920744 116.15942973 -44.5 120 C-54.2851238 128.06111393 -64.08098345 136.10351611 -74 144 C-85.87790568 129.68108404 -88.36007477 112.73641667 -87.26171875 94.68066406 C-85.38021475 75.40928919 -71.32973087 58.5173013 -56.875 46.625 C-55.47140987 45.51901924 -54.06753692 44.41338047 -52.65917969 43.31347656 C-49.22821424 40.59737973 -45.87211029 37.78853267 -42.5 35 C-41.02894599 33.78739619 -39.55759749 32.57514954 -38.0859375 31.36328125 C-37.3856543 30.78658691 -36.68537109 30.20989258 -35.96386719 29.61572266 C-31.6507215 26.06718981 -27.32542954 22.53354321 -23 19 C-20.26272993 16.7607719 -17.52580642 14.52112111 -14.7890625 12.28125 C-12.82642767 10.67595764 -10.86295334 9.0717361 -8.8984375 7.46875 C-7.90070313 6.6540625 -6.90296875 5.839375 -5.875 5 C-4.96492188 4.2575 -4.05484375 3.515 -3.1171875 2.75 C-2.04918385 1.86722208 -0.97977769 0.97977769 0 0 Z " fill="#D02759" transform="translate(227,94)"/>
</svg>
