<svg fill="#000" height="60" viewBox="0, 0, 400, 400" width="60" xmlns="http://www.w3.org/2000/svg" id="svg" style="background-color:#000;" version="1.1" xmlns:xlink="http://www.w3.org/1999/xlink"><g id="svgg"><path fill="#fff" d="M61.684 138.903 C 55.408 140.914,53.501 151.469,58.604 155.950 C 65.532 162.032,75.418 157.703,75.388 148.600 C 75.364 140.974,69.085 136.532,61.684 138.903 M162.400 140.482 C 142.989 143.810,128.572 153.221,119.164 168.707 C 118.304 170.123,117.600 171.348,117.600 171.429 C 117.600 171.510,117.151 172.557,116.603 173.756 C 108.418 191.649,109.662 215.191,119.658 231.603 C 128.111 245.479,144.175 256.297,160.000 258.771 C 167.000 259.865,169.141 260.000,179.558 260.000 L 190.762 260.000 191.381 258.600 C 191.722 257.830,192.251 256.615,192.557 255.900 C 192.863 255.185,193.583 253.560,194.157 252.288 C 194.731 251.017,195.200 249.896,195.200 249.798 C 195.200 249.700,195.740 248.441,196.400 247.000 C 197.060 245.559,197.600 244.299,197.600 244.200 C 197.600 244.101,198.140 242.841,198.800 241.400 C 199.460 239.959,200.000 238.699,200.000 238.600 C 200.000 238.501,200.540 237.241,201.200 235.800 C 201.860 234.359,202.400 233.100,202.400 233.002 C 202.400 232.904,202.869 231.783,203.443 230.512 C 204.017 229.240,204.737 227.615,205.043 226.900 C 205.349 226.185,205.870 224.970,206.200 224.200 C 206.530 223.430,207.070 222.170,207.400 221.400 C 207.730 220.630,208.251 219.415,208.557 218.700 C 208.863 217.985,209.583 216.360,210.157 215.088 C 210.731 213.817,211.200 212.696,211.200 212.598 C 211.200 212.500,211.740 211.241,212.400 209.800 C 213.060 208.359,213.600 207.099,213.600 207.000 C 213.600 206.901,214.140 205.641,214.800 204.200 C 215.460 202.759,216.000 201.499,216.000 201.400 C 216.000 201.301,216.540 200.041,217.200 198.600 C 217.860 197.159,218.400 195.899,218.400 195.800 C 218.400 195.701,218.940 194.441,219.600 193.000 C 220.260 191.559,220.800 190.300,220.800 190.202 C 220.800 190.104,221.250 189.028,221.800 187.812 C 222.350 186.595,223.250 184.605,223.800 183.388 C 224.350 182.172,224.800 181.096,224.800 180.998 C 224.800 180.900,225.340 179.641,226.000 178.200 C 226.660 176.759,227.200 175.500,227.200 175.402 C 227.200 175.304,227.669 174.183,228.243 172.912 C 228.817 171.640,229.537 170.015,229.843 169.300 C 231.269 165.972,231.567 165.284,232.316 163.600 C 232.757 162.610,233.413 161.080,233.775 160.200 C 234.993 157.236,235.394 156.400,235.600 156.400 C 235.806 156.400,236.212 157.245,237.425 160.200 C 237.786 161.080,238.513 162.750,239.041 163.912 C 239.568 165.073,240.000 166.103,240.000 166.200 C 240.000 166.297,240.469 167.417,241.043 168.688 C 242.035 170.886,242.488 171.924,243.753 174.900 C 245.621 179.296,246.599 181.547,247.757 184.112 C 248.331 185.383,248.800 186.504,248.800 186.602 C 248.800 186.700,249.340 187.959,250.000 189.400 C 250.660 190.841,251.200 192.101,251.200 192.200 C 251.200 192.299,251.740 193.559,252.400 195.000 C 253.060 196.441,253.600 197.700,253.600 197.798 C 253.600 197.896,254.069 199.017,254.643 200.288 C 255.706 202.643,256.496 204.453,257.400 206.600 C 257.947 207.900,258.755 209.789,259.709 212.000 C 260.042 212.770,260.783 214.440,261.357 215.712 C 261.931 216.983,262.400 218.104,262.400 218.202 C 262.400 218.300,262.940 219.559,263.600 221.000 C 264.260 222.441,264.800 223.700,264.800 223.798 C 264.800 223.896,265.269 225.017,265.843 226.288 C 266.417 227.560,267.158 229.230,267.491 230.000 C 268.445 232.211,269.253 234.100,269.800 235.400 C 270.078 236.060,270.618 237.320,271.000 238.200 C 271.382 239.080,271.944 240.385,272.247 241.100 C 273.512 244.076,273.965 245.114,274.957 247.312 C 275.531 248.583,276.000 249.704,276.000 249.802 C 276.000 249.900,276.540 251.159,277.200 252.600 C 277.860 254.041,278.400 255.300,278.400 255.398 C 278.400 255.496,278.855 256.572,279.412 257.788 L 280.423 260.000 291.635 260.000 C 302.058 260.000,304.200 259.865,311.200 258.771 C 327.118 256.283,343.040 245.560,351.542 231.603 C 361.516 215.229,362.821 191.794,354.745 174.090 C 354.115 172.709,353.600 171.513,353.600 171.431 C 353.600 171.349,352.886 170.107,352.014 168.672 C 342.507 153.022,328.084 143.695,308.354 140.437 C 304.745 139.841,255.600 139.827,255.600 140.422 C 255.600 140.654,255.979 141.689,256.442 142.722 C 256.905 143.755,257.557 145.230,257.890 146.000 C 258.223 146.770,258.732 147.943,259.022 148.606 C 259.311 149.269,259.735 150.304,259.964 150.906 L 260.380 152.000 279.290 152.000 C 306.165 152.001,311.273 152.656,321.372 157.395 C 342.776 167.440,352.550 195.401,342.976 219.200 C 335.543 237.679,319.918 247.200,297.024 247.200 L 288.995 247.200 288.457 245.900 C 288.161 245.185,287.646 243.970,287.312 243.200 C 286.978 242.430,286.438 241.170,286.111 240.400 C 285.784 239.630,285.176 238.235,284.758 237.300 C 284.341 236.365,283.659 234.835,283.242 233.900 C 282.824 232.965,282.213 231.570,281.884 230.800 C 281.554 230.030,280.886 228.500,280.400 227.400 C 279.914 226.300,279.246 224.770,278.916 224.000 C 278.587 223.230,277.994 221.880,277.600 221.000 C 277.206 220.120,276.575 218.680,276.199 217.800 C 275.822 216.920,275.105 215.300,274.605 214.200 C 273.727 212.268,273.117 210.876,271.758 207.700 C 271.406 206.875,270.776 205.435,270.358 204.500 C 269.941 203.565,269.259 202.035,268.842 201.100 C 268.424 200.165,267.813 198.770,267.484 198.000 C 267.154 197.230,266.486 195.700,266.000 194.600 C 265.514 193.500,264.846 191.970,264.516 191.200 C 264.187 190.430,263.594 189.080,263.200 188.200 C 262.806 187.320,262.175 185.880,261.799 185.000 C 261.422 184.120,260.705 182.500,260.205 181.400 C 259.705 180.300,259.025 178.770,258.695 178.000 C 257.269 174.675,256.672 173.299,255.958 171.700 C 255.541 170.765,254.859 169.235,254.442 168.300 C 254.024 167.365,253.413 165.970,253.084 165.200 C 252.754 164.430,252.086 162.900,251.600 161.800 C 251.114 160.700,250.446 159.170,250.116 158.400 C 249.787 157.630,249.194 156.280,248.800 155.400 C 248.406 154.520,247.775 153.080,247.399 152.200 C 247.022 151.320,246.305 149.700,245.805 148.600 C 245.305 147.500,244.623 145.970,244.290 145.200 C 243.957 144.430,243.301 142.945,242.832 141.900 L 241.980 140.000 235.609 140.000 L 229.238 140.000 228.619 141.400 C 228.278 142.170,227.749 143.385,227.442 144.100 C 227.135 144.815,226.486 146.300,226.000 147.400 C 225.514 148.500,224.843 150.030,224.510 150.800 C 224.177 151.570,223.495 153.100,222.995 154.200 C 222.495 155.300,221.778 156.920,221.401 157.800 C 221.025 158.680,220.394 160.120,220.000 161.000 C 219.606 161.880,219.013 163.230,218.684 164.000 C 218.354 164.770,217.686 166.300,217.200 167.400 C 216.714 168.500,216.043 170.030,215.710 170.800 C 215.377 171.570,214.695 173.100,214.195 174.200 C 213.695 175.300,212.978 176.920,212.601 177.800 C 212.225 178.680,211.594 180.120,211.200 181.000 C 210.806 181.880,210.213 183.230,209.884 184.000 C 209.554 184.770,208.886 186.300,208.400 187.400 C 207.914 188.500,207.243 190.030,206.910 190.800 C 206.577 191.570,205.895 193.100,205.395 194.200 C 204.895 195.300,204.178 196.920,203.801 197.800 C 203.425 198.680,202.794 200.120,202.400 201.000 C 202.006 201.880,201.413 203.230,201.084 204.000 C 200.754 204.770,200.086 206.300,199.600 207.400 C 199.114 208.500,198.443 210.030,198.110 210.800 C 197.777 211.570,197.095 213.100,196.595 214.200 C 196.095 215.300,195.397 216.875,195.043 217.700 C 194.689 218.525,194.130 219.830,193.800 220.600 C 192.424 223.810,191.858 225.103,190.995 227.000 C 190.495 228.100,189.778 229.720,189.401 230.600 C 189.025 231.480,188.376 232.965,187.958 233.900 C 187.541 234.835,186.859 236.365,186.442 237.300 C 185.362 239.721,183.725 243.526,182.743 245.900 L 182.205 247.200 174.176 247.200 C 151.816 247.200,136.641 238.156,128.644 220.064 C 124.656 211.042,123.495 196.961,126.002 188.000 C 130.817 170.785,140.355 160.198,155.685 155.051 C 163.662 152.374,168.089 152.001,191.913 152.000 C 209.570 152.000,210.840 151.954,211.055 151.300 C 211.365 150.359,212.444 147.857,214.800 142.622 C 215.240 141.644,215.600 140.654,215.600 140.422 C 215.600 139.881,165.574 139.938,162.400 140.482 M69.251 143.241 C 72.778 145.736,72.440 152.351,68.694 154.128 C 63.117 156.775,57.403 151.476,59.758 145.840 C 61.184 142.425,66.169 141.060,69.251 143.241 M62.910 172.768 C 54.304 174.948,52.944 187.302,60.800 191.932 C 62.859 193.146,67.726 193.407,69.600 192.405 C 80.610 186.517,74.892 169.734,62.910 172.768 M69.347 177.709 C 73.678 180.775,72.014 188.011,66.750 188.998 C 60.583 190.155,56.691 182.644,61.224 178.331 C 63.431 176.232,66.886 175.967,69.347 177.709 M62.849 207.181 C 54.314 209.324,52.986 221.727,60.800 226.332 C 62.859 227.546,67.726 227.807,69.600 226.805 C 80.691 220.874,74.936 204.146,62.849 207.181 M68.250 211.451 C 70.999 212.755,72.491 215.985,71.646 218.804 C 70.196 223.645,64.112 225.110,60.856 221.403 C 56.349 216.269,62.098 208.531,68.250 211.451 M62.849 241.581 C 54.068 243.785,53.130 257.444,61.514 261.038 C 68.284 263.940,75.346 259.134,75.382 251.600 C 75.417 244.497,69.637 239.877,62.849 241.581 M69.196 246.397 C 71.759 248.222,72.527 251.287,71.153 254.211 C 67.984 260.952,57.993 257.561,59.371 250.212 C 60.163 245.990,65.638 243.864,69.196 246.397 " class="astro-VJQWBL62" fill-rule="evenodd" stroke="none" id="icon"></path><path d="M0.000 200.000 L 0.000 400.000 200.000 400.000 L 400.000 400.000 400.000 200.000 L 400.000 0.000 200.000 0.000 L 0.000 0.000 0.000 200.000 M69.667 139.144 C 76.324 142.002,77.722 151.215,72.243 156.111 C 67.370 160.467,59.249 158.995,56.498 153.257 C 52.404 144.714,61.052 135.445,69.667 139.144 M215.600 140.422 C 215.600 140.654,215.240 141.644,214.800 142.622 C 212.444 147.857,211.365 150.359,211.055 151.300 C 210.840 151.954,209.570 152.000,191.913 152.000 C 168.089 152.001,163.662 152.374,155.685 155.051 C 140.355 160.198,130.817 170.785,126.002 188.000 C 123.495 196.961,124.656 211.042,128.644 220.064 C 136.641 238.156,151.816 247.200,174.176 247.200 L 182.205 247.200 182.743 245.900 C 183.725 243.526,185.362 239.721,186.442 237.300 C 186.859 236.365,187.541 234.835,187.958 233.900 C 188.376 232.965,189.025 231.480,189.401 230.600 C 189.778 229.720,190.495 228.100,190.995 227.000 C 191.858 225.103,192.424 223.810,193.800 220.600 C 194.130 219.830,194.689 218.525,195.043 217.700 C 195.397 216.875,196.095 215.300,196.595 214.200 C 197.095 213.100,197.777 211.570,198.110 210.800 C 198.443 210.030,199.114 208.500,199.600 207.400 C 200.086 206.300,200.754 204.770,201.084 204.000 C 201.413 203.230,202.006 201.880,202.400 201.000 C 202.794 200.120,203.425 198.680,203.801 197.800 C 204.178 196.920,204.895 195.300,205.395 194.200 C 205.895 193.100,206.577 191.570,206.910 190.800 C 207.243 190.030,207.914 188.500,208.400 187.400 C 208.886 186.300,209.554 184.770,209.884 184.000 C 210.213 183.230,210.806 181.880,211.200 181.000 C 211.594 180.120,212.225 178.680,212.601 177.800 C 212.978 176.920,213.695 175.300,214.195 174.200 C 214.695 173.100,215.377 171.570,215.710 170.800 C 216.043 170.030,216.714 168.500,217.200 167.400 C 217.686 166.300,218.354 164.770,218.684 164.000 C 219.013 163.230,219.606 161.880,220.000 161.000 C 220.394 160.120,221.025 158.680,221.401 157.800 C 221.778 156.920,222.495 155.300,222.995 154.200 C 223.495 153.100,224.177 151.570,224.510 150.800 C 224.843 150.030,225.514 148.500,226.000 147.400 C 226.486 146.300,227.135 144.815,227.442 144.100 C 227.749 143.385,228.278 142.170,228.619 141.400 L 229.238 140.000 235.609 140.000 L 241.980 140.000 242.832 141.900 C 243.301 142.945,243.957 144.430,244.290 145.200 C 244.623 145.970,245.305 147.500,245.805 148.600 C 246.305 149.700,247.022 151.320,247.399 152.200 C 247.775 153.080,248.406 154.520,248.800 155.400 C 249.194 156.280,249.787 157.630,250.116 158.400 C 250.446 159.170,251.114 160.700,251.600 161.800 C 252.086 162.900,252.754 164.430,253.084 165.200 C 253.413 165.970,254.024 167.365,254.442 168.300 C 254.859 169.235,255.541 170.765,255.958 171.700 C 256.672 173.299,257.269 174.675,258.695 178.000 C 259.025 178.770,259.705 180.300,260.205 181.400 C 260.705 182.500,261.422 184.120,261.799 185.000 C 262.175 185.880,262.806 187.320,263.200 188.200 C 263.594 189.080,264.187 190.430,264.516 191.200 C 264.846 191.970,265.514 193.500,266.000 194.600 C 266.486 195.700,267.154 197.230,267.484 198.000 C 267.813 198.770,268.424 200.165,268.842 201.100 C 269.259 202.035,269.941 203.565,270.358 204.500 C 270.776 205.435,271.406 206.875,271.758 207.700 C 273.117 210.876,273.727 212.268,274.605 214.200 C 275.105 215.300,275.822 216.920,276.199 217.800 C 276.575 218.680,277.206 220.120,277.600 221.000 C 277.994 221.880,278.587 223.230,278.916 224.000 C 279.246 224.770,279.914 226.300,280.400 227.400 C 280.886 228.500,281.554 230.030,281.884 230.800 C 282.213 231.570,282.824 232.965,283.242 233.900 C 283.659 234.835,284.341 236.365,284.758 237.300 C 285.176 238.235,285.784 239.630,286.111 240.400 C 286.438 241.170,286.978 242.430,287.312 243.200 C 287.646 243.970,288.161 245.185,288.457 245.900 L 288.995 247.200 297.024 247.200 C 315.166 247.200,327.912 241.679,336.873 229.939 C 354.907 206.312,347.028 169.436,321.372 157.395 C 311.273 152.656,306.165 152.001,279.290 152.000 L 260.380 152.000 259.964 150.906 C 259.735 150.304,259.311 149.269,259.022 148.606 C 258.732 147.943,258.223 146.770,257.890 146.000 C 257.557 145.230,256.905 143.755,256.442 142.722 C 255.979 141.689,255.600 140.654,255.600 140.422 C 255.600 139.827,304.745 139.841,308.354 140.437 C 328.084 143.695,342.507 153.022,352.014 168.672 C 352.886 170.107,353.600 171.349,353.600 171.431 C 353.600 171.513,354.115 172.709,354.745 174.090 C 362.169 190.365,361.824 210.053,353.811 227.393 C 346.649 242.890,328.825 256.016,311.200 258.771 C 304.200 259.865,302.058 260.000,291.635 260.000 L 280.423 260.000 279.412 257.788 C 278.855 256.572,278.400 255.496,278.400 255.398 C 278.400 255.300,277.860 254.041,277.200 252.600 C 276.540 251.159,276.000 249.900,276.000 249.802 C 276.000 249.704,275.531 248.583,274.957 247.312 C 273.965 245.114,273.512 244.076,272.247 241.100 C 271.944 240.385,271.382 239.080,271.000 238.200 C 270.618 237.320,270.078 236.060,269.800 235.400 C 269.253 234.100,268.445 232.211,267.491 230.000 C 267.158 229.230,266.417 227.560,265.843 226.288 C 265.269 225.017,264.800 223.896,264.800 223.798 C 264.800 223.700,264.260 222.441,263.600 221.000 C 262.940 219.559,262.400 218.300,262.400 218.202 C 262.400 218.104,261.931 216.983,261.357 215.712 C 260.783 214.440,260.042 212.770,259.709 212.000 C 258.755 209.789,257.947 207.900,257.400 206.600 C 256.496 204.453,255.706 202.643,254.643 200.288 C 254.069 199.017,253.600 197.896,253.600 197.798 C 253.600 197.700,253.060 196.441,252.400 195.000 C 251.740 193.559,251.200 192.299,251.200 192.200 C 251.200 192.101,250.660 190.841,250.000 189.400 C 249.340 187.959,248.800 186.700,248.800 186.602 C 248.800 186.504,248.331 185.383,247.757 184.112 C 246.599 181.547,245.621 179.296,243.753 174.900 C 242.488 171.924,242.035 170.886,241.043 168.688 C 240.469 167.417,240.000 166.297,240.000 166.200 C 240.000 166.103,239.568 165.073,239.041 163.912 C 238.513 162.750,237.786 161.080,237.425 160.200 C 236.212 157.245,235.806 156.400,235.600 156.400 C 235.394 156.400,234.993 157.236,233.775 160.200 C 233.413 161.080,232.757 162.610,232.316 163.600 C 231.567 165.284,231.269 165.972,229.843 169.300 C 229.537 170.015,228.817 171.640,228.243 172.912 C 227.669 174.183,227.200 175.304,227.200 175.402 C 227.200 175.500,226.660 176.759,226.000 178.200 C 225.340 179.641,224.800 180.900,224.800 180.998 C 224.800 181.096,224.350 182.172,223.800 183.388 C 223.250 184.605,222.350 186.595,221.800 187.812 C 221.250 189.028,220.800 190.104,220.800 190.202 C 220.800 190.300,220.260 191.559,219.600 193.000 C 218.940 194.441,218.400 195.701,218.400 195.800 C 218.400 195.899,217.860 197.159,217.200 198.600 C 216.540 200.041,216.000 201.301,216.000 201.400 C 216.000 201.499,215.460 202.759,214.800 204.200 C 214.140 205.641,213.600 206.901,213.600 207.000 C 213.600 207.099,213.060 208.359,212.400 209.800 C 211.740 211.241,211.200 212.500,211.200 212.598 C 211.200 212.696,210.731 213.817,210.157 215.088 C 209.583 216.360,208.863 217.985,208.557 218.700 C 208.251 219.415,207.730 220.630,207.400 221.400 C 207.070 222.170,206.530 223.430,206.200 224.200 C 205.870 224.970,205.349 226.185,205.043 226.900 C 204.737 227.615,204.017 229.240,203.443 230.512 C 202.869 231.783,202.400 232.904,202.400 233.002 C 202.400 233.100,201.860 234.359,201.200 235.800 C 200.540 237.241,200.000 238.501,200.000 238.600 C 200.000 238.699,199.460 239.959,198.800 241.400 C 198.140 242.841,197.600 244.101,197.600 244.200 C 197.600 244.299,197.060 245.559,196.400 247.000 C 195.740 248.441,195.200 249.700,195.200 249.798 C 195.200 249.896,194.731 251.017,194.157 252.288 C 193.583 253.560,192.863 255.185,192.557 255.900 C 192.251 256.615,191.722 257.830,191.381 258.600 L 190.762 260.000 179.558 260.000 C 169.141 260.000,167.000 259.865,160.000 258.771 C 144.175 256.297,128.111 245.479,119.658 231.603 C 109.662 215.191,108.418 191.649,116.603 173.756 C 117.151 172.557,117.600 171.510,117.600 171.429 C 117.600 171.348,118.304 170.123,119.164 168.707 C 128.572 153.221,142.989 143.810,162.400 140.482 C 165.574 139.938,215.600 139.881,215.600 140.422 M64.000 142.282 C 62.495 142.568,60.385 144.337,59.758 145.840 C 56.589 153.424,67.681 158.761,71.099 151.297 C 73.413 146.242,69.475 141.242,64.000 142.282 M69.975 173.390 C 76.365 176.714,77.508 186.335,72.034 190.721 C 66.419 195.220,58.307 193.050,56.181 186.479 C 53.322 177.647,62.116 169.302,69.975 173.390 M63.888 176.679 C 62.226 176.942,59.728 179.512,59.392 181.304 C 57.986 188.794,67.864 192.291,71.166 185.471 C 73.537 180.573,69.569 175.780,63.888 176.679 M70.162 207.884 C 76.426 211.123,77.473 220.763,72.034 225.121 C 66.419 229.620,58.307 227.450,56.181 220.879 C 53.284 211.928,62.113 203.722,70.162 207.884 M62.889 211.464 C 56.181 214.771,59.476 224.637,66.871 223.388 C 68.855 223.053,70.986 221.007,71.646 218.804 C 73.158 213.758,67.632 209.127,62.889 211.464 M70.162 242.284 C 79.570 247.149,75.967 261.844,65.400 261.706 C 55.707 261.580,51.872 248.685,59.859 243.072 C 62.628 241.126,67.240 240.773,70.162 242.284 M62.889 245.842 C 56.270 249.219,59.492 259.015,66.800 257.735 C 72.101 256.805,73.633 249.556,69.196 246.397 C 67.510 245.196,64.648 244.944,62.889 245.842 " fill="none" fill-rule="evenodd" stroke="none"></path></g></svg>
