<?xml version="1.0" encoding="UTF-8"?>
<svg version="1.1" xmlns="http://www.w3.org/2000/svg" width="500" height="500">
<path d="M0 0 C48.97114977 -0.65294866 48.97114977 -0.65294866 63 12.9375 C73.00876947 23.53502062 75.26831447 35.03707836 75.34375 49.24609375 C75.3583728 50.29724869 75.37299561 51.34840363 75.38806152 52.43141174 C75.43423097 55.76673648 75.46861279 59.10200546 75.5 62.4375 C75.54142075 66.83224199 75.59517281 71.22658573 75.65625 75.62109375 C75.66416565 77.10904701 75.66416565 77.10904701 75.67224121 78.62705994 C75.79050403 87.01311012 76.0176097 97.63221709 81.9375 104.125 C86.04327247 106.83477381 86.04327247 106.83477381 96 109 C96 121.54 96 134.08 96 147 C90.555 147.99 90.555 147.99 85 149 C80.90381571 151.13342932 79.71817405 153.28246227 78.25 157.5 C77.81017109 158.99337257 77.39253729 160.49350553 77 162 C76.82600174 162.60696716 76.65200348 163.21393433 76.47273254 163.83929443 C75.95278777 166.21579165 75.86833728 168.35773577 75.8581543 170.79003906 C75.85111984 171.73913147 75.84408539 172.68822388 75.83683777 173.66607666 C75.83059135 175.20035309 75.83059135 175.20035309 75.82421875 176.765625 C75.8009909 178.95834262 75.77687243 181.15105095 75.75195312 183.34375 C75.71709984 186.77935741 75.68763967 190.2146294 75.67407227 193.65039062 C75.50252463 230.02904677 75.50252463 230.02904677 62.2734375 243.796875 C56.20013575 249.39873324 48.87479637 252.51017603 40.875 254.25 C40.09600342 254.41983398 39.31700684 254.58966797 38.5144043 254.76464844 C25.87996232 257.14791731 12.7642103 256.23102643 0 256 C0 243.79 0 231.58 0 219 C11.1875 218.1875 11.1875 218.1875 14.68823242 217.95385742 C15.60967041 217.88013916 16.5311084 217.8064209 17.48046875 217.73046875 C18.88655396 217.62835083 18.88655396 217.62835083 20.32104492 217.52416992 C23.44935434 216.9120784 25.44400942 215.89244046 28 214 C28.97968524 211.06094429 29.13519737 209.12473866 29.15771484 206.06054688 C29.17310806 204.55252502 29.17310806 204.55252502 29.18881226 203.01403809 C29.19611359 201.92659302 29.20341492 200.83914795 29.2109375 199.71875 C29.23902576 197.40884732 29.26769034 195.09895159 29.296875 192.7890625 C29.33797891 189.15332378 29.37487092 185.51771203 29.40136719 181.88183594 C29.42917938 178.36886804 29.47507155 174.85648739 29.5234375 171.34375 C29.52669037 170.27249878 29.52994324 169.20124756 29.53329468 168.09753418 C29.71549144 156.7634555 31.98180371 146.70399075 39.6796875 138.12890625 C45.00487248 132.99153899 51.11002897 130.49187286 58 128 C56.99839844 127.50371094 55.99679687 127.00742188 54.96484375 126.49609375 C44.52209807 121.20849478 36.38339314 116.37014421 32 105 C29.86734603 97.99867744 29.71984123 91.15693084 29.7265625 83.88671875 C29.70629455 81.56444812 29.68544421 79.24218252 29.6640625 76.91992188 C29.64137661 73.2879609 29.62494993 69.65619877 29.61914062 66.02416992 C29.60965051 62.49882922 29.57594336 58.97436412 29.5390625 55.44921875 C29.54410797 54.36066086 29.54915344 53.27210297 29.55435181 52.15055847 C29.54108856 51.13883072 29.52782532 50.12710297 29.51416016 49.0847168 C29.51131012 48.19697067 29.50846008 47.30922455 29.50552368 46.39457703 C28.83775725 43.23148454 27.4433826 42.04586011 25 40 C20.28829915 37.29011639 14.98291197 37.55528752 9.6875 37.375 C4.8921875 37.189375 4.8921875 37.189375 0 37 C0 24.79 0 12.58 0 0 Z " transform="translate(329,124)"/>
<path d="M0 0 C7.7653125 0.0928125 7.7653125 0.0928125 15.6875 0.1875 C15.6875 12.3975 15.6875 24.6075 15.6875 37.1875 C6.625 37.5 6.625 37.5 3.81225586 37.57543945 C-1.56689335 37.81166451 -5.61481616 38.47660729 -10.3125 41.1875 C-14.41185747 45.90272338 -13.75325005 51.42365044 -13.75390625 57.33203125 C-13.76711411 58.41578537 -13.78032196 59.49953949 -13.79393005 60.61613464 C-13.83478323 64.07744904 -13.85647386 67.53849933 -13.875 71 C-13.89885448 74.45070689 -13.92711463 77.90116746 -13.96678162 81.35173035 C-13.99096199 83.49642886 -14.00596375 85.64125678 -14.01039124 87.78608704 C-14.12594332 98.95145714 -16.70504004 109.38618645 -24.3125 117.9375 C-28.88573337 122.20652716 -36.92690583 127.1875 -43.3125 127.1875 C-43.3125 127.8475 -43.3125 128.5075 -43.3125 129.1875 C-42.755625 129.27386719 -42.19875 129.36023438 -41.625 129.44921875 C-31.79158212 131.2597636 -25.07662451 136.02409524 -19.3125 144.1875 C-14.49091847 152.80790334 -14.15438064 161.0587841 -14.03125 170.75390625 C-14.01284058 171.86555649 -13.99443115 172.97720673 -13.97546387 174.12254333 C-13.89704405 178.86504825 -13.82907656 183.60768944 -13.76025391 188.3503418 C-13.70843353 191.81826568 -13.65122835 195.28607228 -13.59375 198.75390625 C-13.58017456 199.82484024 -13.56659912 200.89577423 -13.5526123 201.99916077 C-13.53589478 203.00047531 -13.51917725 204.00178986 -13.50195312 205.03344727 C-13.48942505 205.9102565 -13.47689697 206.78706573 -13.46398926 207.69044495 C-13.307682 210.2669169 -12.87647409 212.6713879 -12.3125 215.1875 C-5.89634443 217.69867562 -0.11317237 218.68724256 6.75 218.875 C11.1740625 219.0296875 11.1740625 219.0296875 15.6875 219.1875 C15.6875 231.3975 15.6875 243.6075 15.6875 256.1875 C-31.39663784 256.81809113 -31.39663784 256.81809113 -46.78515625 244.15234375 C-57.07555755 233.55419213 -59.58065794 219.17012558 -59.65625 204.9765625 C-59.6708728 203.92777924 -59.68549561 202.87899597 -59.70056152 201.7984314 C-59.74672898 198.46982575 -59.78110557 195.14127568 -59.8125 191.8125 C-59.85396964 187.42947798 -59.90775365 183.04685157 -59.96875 178.6640625 C-59.9740271 177.67725494 -59.9793042 176.69044739 -59.98474121 175.67373657 C-59.96331057 163.51307785 -59.96331057 163.51307785 -64.5625 152.625 C-69.49568734 148.25240213 -73.76658066 148.12263133 -80.3125 147.1875 C-80.3125 134.3175 -80.3125 121.4475 -80.3125 108.1875 C-74.3725 107.1975 -74.3725 107.1975 -68.3125 106.1875 C-63.17955179 102.73061651 -61.69624156 98.00151458 -60.3125 92.1875 C-59.91969364 88.28504748 -59.91821392 84.41575005 -59.94140625 80.49609375 C-59.92401276 78.2285142 -59.90642851 75.96093611 -59.88867188 73.69335938 C-59.87865416 70.16785833 -59.8749915 66.64245797 -59.87670898 63.11694336 C-59.8383812 26.71321668 -59.8383812 26.71321668 -46.69140625 12.42578125 C-34.19198152 0.52584931 -16.22629934 -0.27620966 0 0 Z " transform="translate(155.3125,123.8125)"/>
<path d="M0 0 C1.22244667 0.00333092 1.22244667 0.00333092 2.46958923 0.00672913 C3.39046829 0.00680466 4.31134735 0.00688019 5.26013184 0.00695801 C6.2611644 0.01211929 7.26219696 0.01728058 8.29356384 0.02259827 C9.31316696 0.02401321 10.33277008 0.02542816 11.38327026 0.02688599 C14.65417867 0.03250355 17.92501972 0.04505902 21.19590759 0.05775452 C23.40749515 0.06276725 25.61908377 0.06733055 27.83067322 0.07142639 C33.26494116 0.08247868 38.69916957 0.09923389 44.13340759 0.12025452 C43.51269012 3.63996286 42.59407572 6.8129062 41.30186462 10.14271545 C40.73215691 11.61958832 40.73215691 11.61958832 40.15093994 13.126297 C39.73523239 14.19164673 39.31952484 15.25699646 38.89122009 16.35462952 C38.45613632 17.47911499 38.02105255 18.60360046 37.57278442 19.76216125 C36.38610788 22.82686431 35.19585116 25.89014695 34.00398636 28.95283508 C32.74885594 32.18067842 31.49837726 35.41032288 30.24742126 38.63978577 C28.19839301 43.92786208 26.14672307 49.21490572 24.09288025 54.50111389 C21.42919641 61.35698154 18.77048709 68.21476767 16.11387634 75.07337952 C13.00574102 83.0965027 9.89502141 91.11861729 6.78184509 99.13978577 C3.63796686 107.24009039 0.49761938 115.3417539 -2.64002991 123.44447327 C-13.322485 151.02669614 -24.07512999 178.58044243 -34.86659241 206.12025452 C-50.37659241 206.12025452 -65.88659241 206.12025452 -81.86659241 206.12025452 C-80.74173229 199.37109381 -80.74173229 199.37109381 -79.31044006 195.81044006 C-78.9906871 195.00609024 -78.67093414 194.20174042 -78.3414917 193.37301636 C-77.81637749 192.07807503 -77.81637749 192.07807503 -77.28065491 190.75697327 C-76.91224991 189.83393906 -76.54384491 188.91090485 -76.16427612 187.9598999 C-75.36491912 185.95844998 -74.56294368 183.95804428 -73.75865173 181.95857239 C-71.57743037 176.53449231 -69.41656662 171.10230021 -67.25331116 165.67103577 C-66.5811834 163.98560669 -66.5811834 163.98560669 -65.89547729 162.26612854 C-61.29031216 150.70465349 -56.78974106 139.10350947 -52.30409241 127.49525452 C-50.72125865 123.40261323 -49.13781614 119.31020773 -47.55409241 115.21791077 C-46.96982231 113.70798553 -46.96982231 113.70798553 -46.37374878 112.16755676 C-40.38689118 96.70479242 -34.32966002 81.26946767 -28.27938843 65.83143616 C-25.47592296 58.67762043 -22.67640123 51.52226803 -19.87831116 44.36634827 C-19.05222442 42.25396073 -18.22613397 40.14157464 -17.40003967 38.02919006 C-16.209921 34.98593055 -15.01988773 31.94263782 -13.83018494 28.8992157 C-12.74111576 26.11338034 -11.65156052 23.32773553 -10.56190491 20.54212952 C-10.24601913 19.73372116 -9.93013336 18.92531281 -9.60467529 18.09240723 C-8.69484235 15.76722142 -7.78104929 13.44362523 -6.86659241 11.12025452 C-6.50901855 10.20522156 -6.1514447 9.2901886 -5.78303528 8.34742737 C-5.42501831 7.43875916 -5.06700134 6.53009094 -4.69813538 5.59388733 C-4.20867935 4.34662872 -4.20867935 4.34662872 -3.70933533 3.07417297 C-2.45153707 0.15793936 -2.45153707 0.15793936 0 0 Z " transform="translate(268.86659240722656,123.87974548339844)"/>
<style>
        path { fill: #000; }
        @media (prefers-color-scheme: dark) {
            path { fill: #FFF; }
        }
    </style>

</svg>
